<?xml version="1.0" encoding="utf-8"?>
<!-- Generator: Adobe Illustrator 16.0.0, SVG Export Plug-In . SVG Version: 6.00 Build 0)  -->
<!DOCTYPE svg PUBLIC "-//W3C//DTD SVG 1.1//EN" "http://www.w3.org/Graphics/SVG/1.1/DTD/svg11.dtd">
<svg version="1.1" id="Capa_1" xmlns="http://www.w3.org/2000/svg" xmlns:xlink="http://www.w3.org/1999/xlink" x="0px" y="0px"
	 width="150px" height="150px" viewBox="0 0 150 150" enable-background="new 0 0 150 150" xml:space="preserve">
<g>
	<rect x="48.443" y="64.916" fill="#FFFFFF" width="2.756" height="9.189"/>
	<rect x="96.309" y="64.916" fill="#FFFFFF" width="2.756" height="9.189"/>
	<path fill="#FFFFFF" d="M51.199,52.419h46.096V41.154H51.199V52.419z M100.055,55.18H48.443V38.399h51.611V55.18z"/>
	<path fill="#FFFFFF" d="M59.514,38.404h28.67V25.683h-28.67V38.404z M90.939,41.154H56.764V22.922h34.176V41.154z"/>
	<polygon fill="#FFFFFF" points="74.262,133.266 48.443,117.421 48.443,85.225 51.199,85.225 51.199,115.883 74.232,130.013 
		96.309,115.897 96.309,85.225 99.064,85.225 99.064,117.404 	"/>
	<polygon fill="#FFFFFF" points="96.973,117.831 84.123,110.03 73.773,115.807 62.938,110.028 50.561,117.818 49.088,115.487 
		62.82,106.841 73.744,112.661 84.182,106.841 98.4,115.473 	"/>
	<rect x="61.498" y="85.225" fill="#FFFFFF" width="2.756" height="23.209"/>
	<rect x="82.771" y="85.225" fill="#FFFFFF" width="2.756" height="23.209"/>
	<polyline fill="#FFFFFF" points="70.213,130.084 74.232,126.794 78.52,129.93 	"/>
	<polygon fill="#FFFFFF" points="71.086,131.151 69.34,129.021 74.184,125.051 79.334,128.82 77.705,131.047 74.281,128.535 	"/>
	<path fill="#FFFFFF" d="M49.049,75.486c-2.283,0-4.137,1.853-4.137,4.13v0.098c0,2.277,1.854,4.136,4.137,4.136h49.645
		c2.283,0,4.137-1.858,4.137-4.136v-0.098c0-2.277-1.854-4.13-4.137-4.13H49.049z M98.693,86.6H49.049
		c-3.799,0-6.891-3.087-6.891-6.886v-0.098c0-3.799,3.092-6.893,6.891-6.893h49.645c3.799,0,6.887,3.094,6.887,6.893v0.098
		C105.58,83.513,102.492,86.6,98.693,86.6"/>
	<path fill="#FFFFFF" d="M49.029,55.18c-2.283,0-4.135,1.851-4.135,4.13v0.098c0,2.277,1.852,4.13,4.135,4.13h49.645
		c2.277,0,4.131-1.853,4.131-4.13V59.31c0-2.28-1.854-4.13-4.131-4.13H49.029z M98.674,66.293H49.029
		c-3.799,0-6.891-3.087-6.891-6.885V59.31c0-3.799,3.092-6.891,6.891-6.891h49.645c3.799,0,6.891,3.092,6.891,6.891v0.098
		C105.564,63.206,102.473,66.293,98.674,66.293"/>
	<path fill="#FFFFFF" d="M74.252,29.064c-1.561,0-2.838,1.278-2.838,2.833c0,1.565,1.277,2.836,2.838,2.836s2.828-1.271,2.828-2.836
		C77.08,30.342,75.813,29.064,74.252,29.064 M74.252,37.492c-3.088,0-5.594-2.509-5.594-5.594c0-3.087,2.506-5.591,5.594-5.591
		c3.076,0,5.584,2.504,5.584,5.591C79.836,34.982,77.328,37.492,74.252,37.492"/>
	<path fill="#FFFFFF" d="M111.422,42.515h0.766c0.902,0,1.629-0.302,1.629-1.026c0-0.642-0.473-1.066-1.496-1.066
		c-0.426,0-0.727,0.042-0.898,0.085V42.515z M111.383,46.482h-1.629v-7c0.645-0.122,1.537-0.212,2.693-0.212
		c1.326,0,1.92,0.212,2.434,0.51c0.385,0.3,0.682,0.856,0.682,1.541c0,0.768-0.596,1.366-1.449,1.619v0.088
		c0.684,0.256,1.068,0.771,1.279,1.707c0.215,1.068,0.346,1.495,0.512,1.749h-1.752c-0.209-0.253-0.336-0.893-0.551-1.707
		c-0.131-0.773-0.561-1.109-1.453-1.109h-0.766V46.482z M107.066,42.812c0,3.119,2.303,5.591,5.463,5.591
		c3.078,0,5.34-2.473,5.34-5.547c0-3.116-2.262-5.637-5.379-5.637C109.369,37.219,107.066,39.74,107.066,42.812 M119.664,42.812
		c0,3.972-3.117,7.088-7.174,7.088c-4.014,0-7.217-3.116-7.217-7.088c0-3.887,3.203-7,7.217-7
		C116.547,35.812,119.664,38.925,119.664,42.812"/>
</g>
</svg>
