<?xml version="1.0" encoding="utf-8"?>
<!-- Generator: Adobe Illustrator 16.0.0, SVG Export Plug-In . SVG Version: 6.00 Build 0)  -->
<!DOCTYPE svg PUBLIC "-//W3C//DTD SVG 1.1//EN" "http://www.w3.org/Graphics/SVG/1.1/DTD/svg11.dtd">
<svg version="1.1" id="Capa_1" xmlns="http://www.w3.org/2000/svg" xmlns:xlink="http://www.w3.org/1999/xlink" x="0px" y="0px"
	 width="150px" height="150px" viewBox="0 0 150 150" enable-background="new 0 0 150 150" xml:space="preserve">
<g>
	<path fill="#FFFFFF" stroke="#FFFFFF" stroke-miterlimit="10" d="M75.002,144.268"/>
	<g>
		<path fill="#FFFFFF" d="M83.26,143.795c-0.123-0.876,0.492-1.702,1.375-1.829h0.004c0.883-0.122,1.703,0.495,1.83,1.375
			c0.131,0.886-0.488,1.712-1.377,1.832c-0.078,0.017-0.15,0.019-0.229,0.019C84.068,145.191,83.377,144.611,83.26,143.795
			 M92.973,141.937c-0.258-0.858,0.234-1.761,1.098-2.009c0.854-0.259,1.756,0.238,2.01,1.1c0.254,0.854-0.238,1.753-1.098,2.007
			c-0.156,0.041-0.303,0.068-0.459,0.068C93.826,143.103,93.174,142.639,92.973,141.937 M102.322,138.693
			c-0.375-0.812-0.02-1.772,0.795-2.146c0.814-0.376,1.779-0.013,2.15,0.797c0.375,0.817,0.01,1.775-0.799,2.148
			c-0.221,0.101-0.445,0.146-0.674,0.146C103.18,139.64,102.59,139.291,102.322,138.693 M111.109,134.153
			c-0.486-0.751-0.268-1.758,0.484-2.241c0.756-0.482,1.75-0.268,2.238,0.483c0.482,0.753,0.264,1.758-0.488,2.243
			c-0.268,0.176-0.57,0.251-0.877,0.251C111.939,134.89,111.418,134.631,111.109,134.153 M119.152,128.403
			c-0.58-0.675-0.508-1.697,0.17-2.282c0.674-0.59,1.697-0.515,2.283,0.161c0.584,0.673,0.506,1.692-0.166,2.287
			c-0.303,0.264-0.688,0.391-1.059,0.391C119.928,128.96,119.479,128.776,119.152,128.403 M126.311,121.581
			c-0.672-0.59-0.75-1.619-0.16-2.292c0.58-0.676,1.604-0.751,2.281-0.156c0.678,0.58,0.752,1.607,0.162,2.28
			c-0.322,0.368-0.775,0.559-1.219,0.559C126.994,121.972,126.613,121.847,126.311,121.581 M132.426,113.805
			c-0.75-0.484-0.971-1.487-0.486-2.24c0.486-0.749,1.482-0.966,2.238-0.488c0.756,0.488,0.971,1.49,0.482,2.244
			c-0.307,0.478-0.83,0.746-1.355,0.746C133.002,114.066,132.699,113.98,132.426,113.805 M137.377,105.251
			c-0.814-0.378-1.172-1.339-0.805-2.15c0.375-0.814,1.34-1.175,2.154-0.802c0.805,0.375,1.162,1.336,0.795,2.146
			c-0.271,0.598-0.863,0.946-1.477,0.946C137.82,105.391,137.592,105.352,137.377,105.251 M141.053,96.068
			c-0.863-0.249-1.355-1.148-1.105-2.007c0.258-0.858,1.154-1.351,2.018-1.093c0.854,0.249,1.342,1.142,1.094,2.007
			c-0.205,0.705-0.854,1.168-1.551,1.168C141.355,96.144,141.199,96.112,141.053,96.068 M143.369,86.459
			c-0.883-0.13-1.496-0.956-1.369-1.829c0.117-0.89,0.941-1.507,1.834-1.37c0.883,0.117,1.492,0.941,1.369,1.823v0.003
			c-0.121,0.805-0.809,1.388-1.6,1.388C143.525,86.474,143.447,86.471,143.369,86.459"/>
		<path fill="#FFFFFF" d="M84.863,146.44c-1.416,0-2.639-1.061-2.84-2.468c-0.217-1.565,0.875-3.019,2.434-3.243l0.404-0.026
			c1.418,0,2.641,1.058,2.844,2.46c0.111,0.756-0.082,1.515-0.545,2.131c-0.463,0.617-1.139,1.013-1.902,1.114L84.863,146.44z
			 M84.861,143.2c-0.246,0.031-0.393,0.224-0.365,0.421c0.029,0.21,0.207,0.322,0.367,0.322v1.248l0.027-1.248
			c0.158-0.024,0.23-0.093,0.273-0.148c0.033-0.047,0.088-0.142,0.07-0.271C85.205,143.336,85.047,143.2,84.861,143.2z
			 M94.523,144.351c-1.271,0-2.404-0.851-2.75-2.072c-0.217-0.717-0.137-1.495,0.232-2.171c0.367-0.675,0.977-1.165,1.719-1.38
			c1.391-0.422,3.113,0.464,3.553,1.946c0.217,0.729,0.137,1.502-0.229,2.172c-0.367,0.676-0.977,1.168-1.713,1.386
			C95.125,144.287,94.852,144.351,94.523,144.351z M94.531,141.107c-0.236,0.054-0.303,0.134-0.334,0.195
			c-0.033,0.059-0.063,0.156-0.029,0.273c0.055,0.188,0.223,0.277,0.355,0.277c0.018,0,0.057-0.005,0.141-0.026
			c0.098-0.029,0.162-0.12,0.189-0.171c0.031-0.061,0.063-0.156,0.029-0.273C94.826,141.193,94.66,141.107,94.531,141.107z
			 M103.795,140.888c-1.127,0-2.152-0.66-2.611-1.682c-0.316-0.684-0.346-1.464-0.08-2.183c0.266-0.72,0.795-1.29,1.494-1.609
			c1.391-0.653,3.168,0.02,3.807,1.412c0.658,1.434,0.023,3.138-1.414,3.801C104.609,140.801,104.207,140.888,103.795,140.888z
			 M103.791,137.647c-0.27,0.088-0.322,0.178-0.348,0.241c-0.023,0.066-0.041,0.166,0.014,0.28c0.111,0.257,0.346,0.264,0.494,0.188
			c0.184-0.086,0.268-0.305,0.184-0.49C104.059,137.704,103.902,137.647,103.791,137.647z M112.467,136.138
			c-0.98,0-1.879-0.489-2.408-1.309c-0.414-0.64-0.553-1.407-0.393-2.158c0.162-0.751,0.605-1.393,1.252-1.81
			c1.301-0.829,3.129-0.427,3.959,0.854c0.855,1.336,0.471,3.114-0.855,3.973C113.572,135.979,113.031,136.138,112.467,136.138z
			 M112.471,132.902c-0.314,0.132-0.352,0.236-0.363,0.295c-0.014,0.068-0.018,0.171,0.049,0.275
			c0.102,0.156,0.264,0.169,0.311,0.169c0.121,0,0.174-0.037,0.193-0.047c0.182-0.117,0.232-0.351,0.121-0.526
			C112.684,132.92,112.531,132.902,112.471,132.902z M120.381,130.208c-0.832,0-1.621-0.358-2.168-0.982
			c-1.035-1.205-0.902-3.019,0.293-4.051c1.133-0.987,3.041-0.862,4.043,0.291c1.025,1.18,0.9,2.994-0.283,4.04
			C121.744,129.959,121.076,130.208,120.381,130.208z M120.381,126.973c-0.061,0-0.15,0.015-0.234,0.088
			c-0.162,0.139-0.18,0.375-0.049,0.528c0.119,0.137,0.379,0.156,0.521,0.039c0.154-0.137,0.176-0.375,0.045-0.526
			C120.564,126.989,120.443,126.973,120.381,126.973z M127.375,123.22c-0.703,0-1.373-0.249-1.889-0.7
			c-1.191-1.046-1.316-2.865-0.275-4.055c0.979-1.144,2.893-1.28,4.045-0.271c0.57,0.49,0.922,1.188,0.979,1.953
			c0.053,0.768-0.195,1.509-0.703,2.09C128.986,122.861,128.199,123.22,127.375,123.22z M133.305,115.314
			c-0.549,0-1.086-0.158-1.553-0.458c-1.33-0.858-1.715-2.637-0.863-3.965c0.84-1.29,2.664-1.688,3.957-0.871
			c0.652,0.425,1.1,1.065,1.26,1.814c0.162,0.751,0.02,1.519-0.396,2.163C135.18,114.822,134.279,115.314,133.305,115.314z
			 M138.045,106.639c-0.43,0-0.832-0.085-1.195-0.256c-1.424-0.661-2.061-2.363-1.416-3.794c0.648-1.41,2.416-2.063,3.813-1.425
			c1.43,0.666,2.059,2.365,1.414,3.795C140.193,105.98,139.166,106.639,138.045,106.639z M138.078,103.423
			c-0.188,0-0.309,0.063-0.373,0.199c-0.08,0.181,0.006,0.407,0.197,0.498l0.143,0.021c0.111,0,0.268-0.056,0.342-0.217
			c0.082-0.181-0.004-0.41-0.189-0.495C138.156,103.425,138.115,103.423,138.078,103.423z M141.508,97.393
			c-0.26,0-0.525-0.042-0.813-0.13c-0.725-0.207-1.334-0.694-1.705-1.365c-0.371-0.67-0.455-1.445-0.244-2.183
			c0.455-1.509,2.076-2.392,3.578-1.94c1.5,0.437,2.369,2.028,1.934,3.545C143.904,96.541,142.773,97.393,141.508,97.393z
			 M143.604,87.722l-0.426-0.029c-1.551-0.227-2.641-1.683-2.414-3.243c0.182-1.392,1.396-2.458,2.82-2.458l0.438,0.034
			c0.729,0.096,1.396,0.485,1.857,1.09c0.469,0.615,0.668,1.373,0.561,2.139C146.229,86.668,145.008,87.722,143.604,87.722z"/>
	</g>
	<g>
		<path fill="#FFFFFF" d="M142,65.328L142,65.328c-0.127-0.873,0.486-1.705,1.375-1.821c0.883-0.127,1.701,0.48,1.834,1.372
			c0.121,0.883-0.492,1.699-1.375,1.829c-0.074,0.012-0.152,0.015-0.23,0.015C142.805,66.723,142.117,66.143,142,65.328
			 M139.957,55.899c-0.254-0.861,0.238-1.76,1.096-2.007c0.863-0.253,1.762,0.234,2.01,1.095c0.258,0.858-0.234,1.758-1.088,2.009
			c-0.16,0.039-0.316,0.068-0.463,0.068C140.811,57.064,140.16,56.604,139.957,55.899 M136.582,46.845
			c-0.377-0.814-0.016-1.772,0.795-2.138c0.814-0.373,1.775-0.024,2.15,0.795c0.371,0.816,0.01,1.77-0.801,2.146
			c-0.215,0.103-0.453,0.151-0.668,0.151C137.445,47.799,136.855,47.445,136.582,46.845 M131.939,38.375h0.01
			c-0.488-0.751-0.273-1.751,0.477-2.244c0.752-0.475,1.756-0.263,2.244,0.493c0.488,0.751,0.264,1.751-0.488,2.243
			c-0.273,0.171-0.574,0.256-0.873,0.256C132.777,39.123,132.25,38.857,131.939,38.375 M126.15,30.647
			c-0.586-0.67-0.512-1.697,0.16-2.29c0.674-0.575,1.703-0.507,2.287,0.171c0.586,0.675,0.512,1.694-0.166,2.282
			c-0.301,0.266-0.682,0.397-1.057,0.397C126.92,31.208,126.473,31.018,126.15,30.647 M119.322,23.817L119.322,23.817
			c-0.678-0.585-0.75-1.609-0.16-2.283c0.58-0.675,1.604-0.746,2.281-0.163c0.678,0.59,0.746,1.607,0.166,2.29
			c-0.322,0.366-0.77,0.556-1.225,0.556C120.01,24.217,119.625,24.081,119.322,23.817 M111.604,18.026
			c-0.762-0.482-0.971-1.487-0.488-2.238c0.479-0.751,1.482-0.965,2.238-0.488c0.75,0.488,0.965,1.493,0.482,2.244
			c-0.313,0.478-0.828,0.744-1.359,0.744C112.174,18.287,111.871,18.202,111.604,18.026 M103.131,13.391
			c-0.809-0.371-1.17-1.331-0.799-2.146c0.375-0.812,1.332-1.173,2.141-0.797c0.82,0.368,1.176,1.336,0.805,2.146
			c-0.273,0.598-0.863,0.946-1.473,0.946C103.58,13.54,103.352,13.493,103.131,13.391 M94.096,10.016
			c-0.863-0.249-1.352-1.146-1.098-2.009c0.254-0.854,1.15-1.349,2.01-1.092c0.863,0.251,1.34,1.146,1.096,2.007
			c-0.203,0.707-0.854,1.163-1.555,1.163C94.398,10.084,94.246,10.063,94.096,10.016 M84.658,7.973
			c-0.883-0.127-1.502-0.954-1.369-1.831c0.121-0.888,0.945-1.502,1.828-1.373C86,4.893,86.613,5.71,86.492,6.602
			c-0.117,0.802-0.809,1.385-1.6,1.385C84.814,7.987,84.736,7.985,84.658,7.973"/>
		<path fill="#FFFFFF" d="M143.604,67.971c-1.441,0-2.635-1.036-2.84-2.465c-0.109-0.758,0.084-1.515,0.551-2.131
			c0.465-0.612,1.139-1.007,1.896-1.107l0.398-0.027c1.432,0,2.623,1.033,2.836,2.455c0.215,1.567-0.877,3.019-2.432,3.248
			L143.604,67.971z M143.609,64.738c-0.188,0.021-0.262,0.09-0.303,0.144c-0.035,0.046-0.09,0.142-0.07,0.266
			c0.025,0.192,0.178,0.326,0.367,0.326v1.249l0.049-1.249c0.205-0.031,0.346-0.222,0.32-0.424
			C143.943,64.85,143.766,64.738,143.609,64.738z M141.512,58.313c-1.268,0-2.402-0.849-2.756-2.065
			c-0.215-0.734-0.131-1.512,0.24-2.187c0.367-0.671,0.977-1.158,1.713-1.368c1.451-0.424,3.127,0.471,3.553,1.948
			c0.217,0.719,0.137,1.497-0.227,2.17c-0.365,0.675-0.973,1.166-1.707,1.382C142.07,58.257,141.805,58.313,141.512,58.313z
			 M141.518,55.075c-0.238,0.051-0.301,0.129-0.334,0.188c-0.033,0.061-0.066,0.161-0.029,0.283
			c0.053,0.186,0.221,0.268,0.355,0.271c0.238-0.054,0.303-0.144,0.328-0.192c0.035-0.061,0.064-0.159,0.029-0.276
			C141.813,55.153,141.65,55.075,141.518,55.075z M138.059,49.047c-1.121,0-2.148-0.661-2.613-1.685
			c-0.32-0.692-0.35-1.473-0.08-2.192c0.268-0.717,0.799-1.285,1.496-1.602c1.383-0.626,3.164,0.02,3.799,1.415
			c0.652,1.434,0.02,3.136-1.408,3.796C138.891,48.952,138.473,49.047,138.059,49.047z M138.057,45.807
			c-0.283,0.09-0.334,0.185-0.354,0.239c-0.021,0.063-0.041,0.164,0.012,0.278c0.107,0.232,0.348,0.259,0.473,0.198
			c0.205-0.095,0.289-0.314,0.203-0.502C138.32,45.863,138.172,45.807,138.057,45.807z M133.309,40.372
			c-0.98,0-1.885-0.493-2.418-1.319l-1.246-1.926h0.822c0.104-0.805,0.545-1.561,1.275-2.039c1.336-0.844,3.15-0.424,3.977,0.858
			c0.855,1.316,0.473,3.097-0.852,3.965C134.377,40.218,133.846,40.372,133.309,40.372z M127.375,32.457
			c-0.83,0-1.619-0.361-2.168-0.99c-1.031-1.185-0.908-2.999,0.279-4.045c1.178-1.01,3.063-0.856,4.059,0.29
			c1.031,1.192,0.898,3.006-0.295,4.042C128.736,32.205,128.068,32.457,127.375,32.457z M127.369,29.216
			c-0.066,0-0.16,0.017-0.246,0.09c-0.146,0.129-0.166,0.366-0.031,0.519c0.182,0.212,0.326,0.217,0.516,0.046
			c0.164-0.141,0.182-0.371,0.047-0.526C127.557,29.233,127.436,29.216,127.369,29.216z M120.385,25.465
			c-0.689,0-1.359-0.251-1.881-0.707c-0.578-0.5-0.93-1.197-0.982-1.965c-0.055-0.766,0.197-1.504,0.701-2.082
			c0.977-1.132,2.883-1.278,4.035-0.286c1.188,1.034,1.322,2.846,0.303,4.045C122,25.109,121.213,25.465,120.385,25.465z
			 M120.381,22.225c-0.061,0-0.18,0.017-0.273,0.124c-0.09,0.103-0.1,0.203-0.096,0.271c0.004,0.056,0.025,0.166,0.127,0.251
			c0.125,0.112,0.295,0.236,0.535-0.034c0.123-0.148,0.109-0.385-0.049-0.524C120.541,22.242,120.447,22.225,120.381,22.225z
			 M112.477,19.536c-0.555,0-1.094-0.161-1.557-0.466c-0.635-0.4-1.08-1.039-1.246-1.785c-0.164-0.751-0.027-1.524,0.391-2.172
			c0.814-1.278,2.658-1.69,3.957-0.868c1.336,0.868,1.719,2.648,0.865,3.975C114.346,19.045,113.445,19.536,112.477,19.536z
			 M103.805,14.788c-0.42,0-0.822-0.09-1.201-0.266c-1.428-0.653-2.061-2.358-1.408-3.794c0.648-1.402,2.406-2.058,3.803-1.412
			c0.688,0.307,1.221,0.875,1.492,1.595c0.27,0.722,0.242,1.504-0.076,2.202C105.947,14.129,104.924,14.788,103.805,14.788z
			 M94.549,11.333c-0.277,0-0.553-0.041-0.82-0.122c-0.717-0.208-1.326-0.692-1.693-1.363c-0.369-0.673-0.451-1.453-0.234-2.192
			c0.436-1.48,2.084-2.373,3.563-1.938c1.496,0.437,2.373,2.026,1.943,3.545C96.951,10.484,95.818,11.333,94.549,11.333z
			 M84.893,9.236l-0.426-0.029c-0.746-0.107-1.418-0.507-1.879-1.126c-0.457-0.615-0.648-1.371-0.533-2.124
			c0.189-1.392,1.406-2.453,2.828-2.453l0.414,0.029c1.555,0.22,2.646,1.673,2.432,3.238C87.523,8.18,86.305,9.236,84.893,9.236z
			 M84.93,6.005c-0.207,0-0.379,0.11-0.404,0.307c-0.02,0.139,0.033,0.232,0.068,0.278c0.033,0.046,0.111,0.126,0.242,0.146
			l0.057,0.002c0.18,0,0.34-0.137,0.363-0.317c0.029-0.2-0.109-0.388-0.313-0.417C84.939,6.005,84.934,6.005,84.93,6.005z"/>
	</g>
	<g>
		<path fill="#FFFFFF" d="M6.172,66.684c-0.888-0.127-1.502-0.948-1.375-1.834c0.127-0.882,0.946-1.494,1.838-1.375
			c0.878,0.137,1.493,0.946,1.371,1.834c-0.112,0.81-0.81,1.395-1.6,1.395C6.328,66.703,6.25,66.698,6.172,66.684 M8.045,56.974
			c-0.863-0.253-1.356-1.156-1.102-2.007c0.253-0.863,1.156-1.353,2.009-1.107c0.863,0.261,1.356,1.158,1.098,2.009
			c-0.205,0.707-0.849,1.166-1.551,1.166C8.347,57.035,8.196,57.021,8.045,56.974 M11.278,47.638c-0.81-0.373-1.166-1.334-0.8-2.15
			c0.366-0.807,1.336-1.173,2.146-0.792c0.814,0.368,1.175,1.329,0.8,2.143c-0.268,0.588-0.858,0.946-1.473,0.946
			C11.722,47.784,11.498,47.738,11.278,47.638 M15.823,38.857c-0.756-0.485-0.971-1.482-0.488-2.233
			c0.483-0.756,1.482-0.975,2.238-0.493c0.751,0.483,0.976,1.488,0.483,2.241c-0.312,0.485-0.829,0.744-1.36,0.744
			C16.389,39.116,16.086,39.035,15.823,38.857 M21.568,30.808c-0.678-0.59-0.746-1.604-0.171-2.282
			c0.595-0.676,1.618-0.744,2.292-0.168c0.674,0.593,0.752,1.609,0.156,2.29c-0.313,0.368-0.766,0.561-1.219,0.561
			C22.246,31.208,21.871,31.076,21.568,30.808 M28.395,23.661c-0.59-0.685-0.512-1.707,0.166-2.29
			c0.668-0.585,1.697-0.512,2.283,0.163c0.59,0.673,0.512,1.697-0.166,2.283c-0.303,0.263-0.678,0.4-1.053,0.4
			C29.172,24.217,28.717,24.027,28.395,23.661 M36.17,17.531c-0.484-0.749-0.264-1.744,0.482-2.231
			c0.756-0.48,1.756-0.263,2.242,0.488c0.484,0.751,0.264,1.744-0.486,2.233c-0.273,0.173-0.572,0.261-0.879,0.261
			C36.998,18.282,36.48,18.021,36.17,17.531 M44.732,12.588c-0.371-0.807-0.01-1.775,0.801-2.143
			c0.814-0.373,1.773-0.015,2.141,0.795c0.379,0.814,0.023,1.77-0.795,2.15c-0.215,0.098-0.443,0.146-0.674,0.146
			C45.596,13.537,45.01,13.188,44.732,12.588 M53.92,8.909c-0.248-0.856,0.24-1.756,1.098-2.009c0.859-0.244,1.76,0.246,2.014,1.104
			c0.244,0.856-0.248,1.76-1.102,2.012c-0.156,0.034-0.307,0.059-0.463,0.059C54.77,10.075,54.125,9.621,53.92,8.909 M63.537,6.592
			c-0.131-0.885,0.482-1.699,1.371-1.831c0.887-0.122,1.707,0.493,1.838,1.373c0.117,0.885-0.498,1.711-1.381,1.836
			c-0.076,0.015-0.154,0.017-0.229,0.017C64.348,7.987,63.645,7.404,63.537,6.592"/>
		<path fill="#FFFFFF" d="M6.406,67.951L5.943,67.91c-0.707-0.101-1.377-0.498-1.838-1.109c-0.458-0.615-0.651-1.371-0.544-2.129
			c0.203-1.402,1.429-2.46,2.853-2.46l0.388,0.027c1.57,0.244,2.653,1.695,2.441,3.24C9.047,66.889,7.828,67.951,6.406,67.951z
			 M6.443,64.709c-0.222,0-0.383,0.136-0.41,0.319c-0.024,0.173,0.141,0.395,0.314,0.419l0.059,0.007
			c0.156,0,0.336-0.119,0.363-0.316C6.799,64.931,6.655,64.74,6.443,64.709L6.443,64.709z M8.499,58.284
			c-0.298,0-0.566-0.039-0.819-0.115c-0.727-0.214-1.336-0.707-1.705-1.382c-0.366-0.673-0.446-1.446-0.229-2.175
			c0.431-1.468,2.072-2.387,3.553-1.951c0.758,0.229,1.368,0.727,1.731,1.407c0.358,0.67,0.434,1.438,0.215,2.165
			C10.895,57.433,9.764,58.284,8.499,58.284z M11.951,49.033c-0.412,0-0.814-0.088-1.19-0.259c-1.429-0.658-2.065-2.36-1.422-3.796
			c0.637-1.41,2.417-2.075,3.816-1.412c0.683,0.308,1.217,0.878,1.485,1.597c0.268,0.72,0.239,1.5-0.083,2.197
			C14.094,48.374,13.07,49.033,11.951,49.033z M16.696,40.364c-0.571,0-1.114-0.164-1.573-0.473
			c-0.622-0.397-1.066-1.039-1.229-1.785c-0.161-0.749-0.024-1.514,0.39-2.158c0.822-1.285,2.665-1.7,3.962-0.868
			c0.651,0.417,1.097,1.063,1.259,1.816c0.158,0.749,0.017,1.517-0.403,2.158C18.576,39.872,17.676,40.364,16.696,40.364z
			 M22.627,32.457c-0.698,0-1.369-0.254-1.889-0.714c-1.172-1.022-1.307-2.829-0.292-4.023c1.029-1.168,2.907-1.29,4.056-0.31
			c1.199,1.056,1.32,2.872,0.283,4.06C24.258,32.091,23.467,32.457,22.627,32.457z M22.631,29.216c-0.066,0-0.195,0.02-0.297,0.134
			c-0.123,0.144-0.105,0.378,0.053,0.517l0.24,0.093c0.102,0,0.201-0.044,0.266-0.12c0.15-0.17,0.131-0.405-0.027-0.546
			C22.793,29.233,22.697,29.216,22.631,29.216z M29.625,25.465c-0.83,0-1.619-0.356-2.166-0.98c-0.512-0.593-0.758-1.334-0.701-2.1
			c0.055-0.763,0.408-1.46,0.988-1.96c1.125-0.982,3.047-0.858,4.041,0.293c0.5,0.568,0.748,1.307,0.695,2.07
			c-0.055,0.768-0.404,1.471-0.988,1.975C30.975,25.214,30.311,25.465,29.625,25.465z M37.529,19.531
			c-0.982,0-1.885-0.498-2.414-1.329c-0.846-1.312-0.465-3.084,0.854-3.948c1.324-0.841,3.143-0.427,3.973,0.854
			c0.852,1.324,0.469,3.099-0.852,3.96C38.607,19.372,38.07,19.531,37.529,19.531z M37.527,16.292
			c-0.365,0.166-0.418,0.395-0.311,0.561c0.162,0.254,0.271,0.273,0.523,0.115c0.162-0.107,0.217-0.334,0.104-0.505
			C37.779,16.358,37.656,16.292,37.527,16.292z M46.205,14.786c-1.111,0-2.133-0.656-2.605-1.673
			c-0.32-0.697-0.348-1.475-0.078-2.197c0.268-0.72,0.799-1.29,1.494-1.607c1.4-0.646,3.164,0.024,3.797,1.417
			c0.316,0.68,0.352,1.456,0.09,2.172c-0.264,0.722-0.795,1.3-1.498,1.624C47.018,14.698,46.617,14.786,46.205,14.786z
			 M46.205,11.545c-0.273,0.09-0.326,0.19-0.346,0.244s-0.047,0.164,0.008,0.278c0.109,0.236,0.34,0.256,0.494,0.188
			c0.115-0.054,0.17-0.146,0.195-0.212c0.021-0.063,0.039-0.161-0.016-0.273C46.467,11.601,46.314,11.545,46.205,11.545z
			 M55.467,11.323c-1.266,0-2.395-0.851-2.746-2.067c-0.439-1.512,0.432-3.106,1.943-3.553c1.563-0.437,3.131,0.48,3.564,1.948
			c0.434,1.526-0.438,3.119-1.945,3.563C56.01,11.277,55.76,11.323,55.467,11.323z M55.465,8.085
			c-0.289,0.071-0.402,0.278-0.344,0.475c0.066,0.244,0.15,0.317,0.543,0.237c0.107-0.037,0.225-0.251,0.168-0.451
			C55.779,8.17,55.605,8.085,55.465,8.085z M65.137,9.236c-1.432,0-2.65-1.066-2.838-2.48c-0.109-0.739,0.082-1.497,0.543-2.112
			c0.457-0.607,1.125-1.004,1.883-1.117l0.408-0.029c1.414,0,2.641,1.054,2.848,2.451c0.209,1.587-0.885,3.038-2.441,3.258
			L65.137,9.236z M65.133,5.995c-0.213,0.027-0.387,0.241-0.361,0.415c0.029,0.212,0.207,0.329,0.365,0.329v1.249l0.035-1.249
			c0.219-0.034,0.365-0.231,0.336-0.441C65.482,6.134,65.32,5.995,65.133,5.995z"/>
	</g>
	<g>
		<path fill="#FFFFFF" d="M64.879,145.173L64.879,145.173c-0.879-0.13-1.492-0.946-1.371-1.832c0.123-0.888,0.951-1.504,1.834-1.375
			c0.887,0.119,1.508,0.941,1.371,1.829c-0.113,0.805-0.805,1.396-1.6,1.392C65.039,145.187,64.961,145.187,64.879,145.173
			 M54.998,143.029c-0.863-0.254-1.355-1.151-1.107-2.02c0.26-0.851,1.156-1.343,2.02-1.09c0.857,0.249,1.346,1.148,1.098,2.005
			c-0.205,0.712-0.859,1.17-1.561,1.17C55.301,143.095,55.145,143.073,54.998,143.029 M45.518,139.491L45.518,139.491
			c-0.809-0.376-1.16-1.334-0.795-2.148c0.381-0.814,1.336-1.171,2.146-0.798c0.818,0.376,1.17,1.337,0.799,2.139
			c-0.268,0.6-0.857,0.951-1.477,0.951C45.971,139.635,45.736,139.589,45.518,139.491 M36.652,134.631
			c-0.756-0.487-0.971-1.482-0.488-2.238c0.488-0.753,1.482-0.966,2.244-0.48h-0.006c0.756,0.48,0.971,1.482,0.482,2.231
			c-0.307,0.487-0.828,0.746-1.359,0.746C37.227,134.89,36.926,134.807,36.652,134.631 M28.551,128.563
			c-0.672-0.588-0.746-1.607-0.16-2.28c0.59-0.676,1.609-0.751,2.287-0.161c0.674,0.585,0.756,1.607,0.166,2.275
			c-0.316,0.375-0.775,0.561-1.229,0.561C29.238,128.957,28.863,128.83,28.551,128.563 M21.397,121.413L21.397,121.413
			c-0.575-0.676-0.507-1.7,0.165-2.29c0.674-0.585,1.697-0.507,2.283,0.161c0.586,0.678,0.518,1.707-0.156,2.29
			c-0.307,0.268-0.688,0.395-1.063,0.395C22.172,121.969,21.719,121.781,21.397,121.413 M15.331,113.315
			c-0.483-0.752-0.263-1.761,0.488-2.239c0.746-0.485,1.755-0.263,2.238,0.479c0.478,0.763,0.269,1.761-0.483,2.243
			c-0.273,0.176-0.58,0.259-0.877,0.259C16.165,114.057,15.643,113.788,15.331,113.315 M10.474,104.437
			c-0.366-0.812-0.01-1.774,0.805-2.15c0.804-0.37,1.775-0.012,2.141,0.808c0.366,0.804,0.015,1.765-0.795,2.138
			c-0.219,0.098-0.449,0.149-0.673,0.149C11.336,105.381,10.747,105.029,10.474,104.437 M6.933,94.949
			c-0.249-0.858,0.244-1.761,1.107-2.01c0.854-0.253,1.755,0.237,2.009,1.103c0.249,0.855-0.244,1.756-1.103,2.009
			c-0.151,0.042-0.307,0.062-0.458,0.062C7.791,96.112,7.143,95.653,6.933,94.949 M4.792,85.063L4.792,85.063
			c-0.122-0.89,0.493-1.704,1.38-1.828c0.877-0.127,1.707,0.487,1.824,1.365c0.132,0.888-0.483,1.712-1.371,1.834
			c-0.078,0.015-0.156,0.02-0.229,0.02C5.602,86.454,4.904,85.866,4.792,85.063"/>
		<path fill="#FFFFFF" d="M65.123,146.436c-0.049,0.026-0.391-0.02-0.461-0.034c-1.518-0.222-2.605-1.675-2.391-3.23
			c0.193-1.407,1.412-2.471,2.836-2.471c0.061,0,0.355,0.022,0.414,0.029c0.752,0.103,1.43,0.5,1.891,1.117
			c0.461,0.616,0.65,1.375,0.533,2.139C67.754,145.375,66.537,146.436,65.123,146.436z M65.158,143.202
			c-0.217,0-0.387,0.117-0.414,0.31c-0.027,0.205,0.115,0.396,0.316,0.425l0.063,0.002c0.172,0,0.328-0.139,0.354-0.317
			c0.021-0.136-0.023-0.227-0.064-0.28c-0.031-0.044-0.107-0.119-0.236-0.139C65.168,143.202,65.164,143.202,65.158,143.202z
			 M55.447,144.344c-0.271,0-0.549-0.042-0.807-0.12c-1.508-0.441-2.385-2.038-1.949-3.558c0.457-1.509,2.09-2.38,3.57-1.943
			c0.734,0.212,1.34,0.7,1.709,1.373c0.365,0.671,0.449,1.443,0.236,2.178C57.855,143.49,56.719,144.344,55.447,144.344z
			 M55.508,141.117c-0.244,0-0.379,0.107-0.422,0.256c-0.053,0.188,0.059,0.397,0.264,0.459l0.098,0.015
			c0.137,0,0.307-0.083,0.361-0.269c0.049-0.168-0.078-0.409-0.248-0.458C55.545,141.117,55.525,141.117,55.508,141.117z
			 M46.191,140.883c-0.402,0-0.811-0.087-1.182-0.251c-1.438-0.668-2.07-2.367-1.426-3.801c0.66-1.415,2.416-2.056,3.807-1.42
			c0.697,0.32,1.229,0.893,1.496,1.612c0.264,0.717,0.234,1.492-0.084,2.185C48.35,140.22,47.322,140.883,46.191,140.883z
			 M37.525,136.138c-0.549,0-1.084-0.158-1.549-0.455c-1.326-0.856-1.715-2.634-0.863-3.963c0.836-1.295,2.668-1.685,3.965-0.86
			c0.646,0.414,1.092,1.053,1.254,1.804c0.16,0.751,0.02,1.517-0.4,2.161C39.416,135.641,38.516,136.138,37.525,136.138z
			 M29.615,130.206c-0.688,0-1.354-0.247-1.879-0.698c-1.193-1.043-1.32-2.854-0.287-4.045c1.004-1.153,2.896-1.287,4.049-0.283
			c0.582,0.508,0.934,1.21,0.984,1.98c0.049,0.761-0.199,1.495-0.703,2.063C31.258,129.84,30.463,130.206,29.615,130.206z
			 M22.627,123.217c-0.832,0-1.625-0.358-2.168-0.982c-1.029-1.204-0.898-3.016,0.279-4.05c1.159-1.005,3.047-0.863,4.047,0.277
			c1.041,1.207,0.914,3.024-0.279,4.056C23.992,122.969,23.32,123.217,22.627,123.217z M22.619,119.979
			c-0.061,0-0.154,0.015-0.236,0.085c-0.154,0.137-0.172,0.378-0.035,0.539c0.176,0.2,0.354,0.176,0.52,0.029
			c0.156-0.135,0.168-0.376,0.031-0.532C22.805,119.991,22.672,119.979,22.619,119.979z M16.696,115.305
			c-0.971,0-1.871-0.487-2.407-1.302c-0.424-0.659-0.561-1.43-0.397-2.181c0.166-0.751,0.612-1.39,1.256-1.799
			c1.253-0.817,3.124-0.43,3.955,0.851c0.848,1.354,0.46,3.129-0.854,3.975C17.784,115.146,17.247,115.305,16.696,115.305z
			 M16.691,112.066c-0.31,0.132-0.346,0.236-0.358,0.293c-0.015,0.056-0.024,0.168,0.049,0.28c0.117,0.183,0.28,0.266,0.517,0.107
			c0.173-0.11,0.217-0.344,0.1-0.529C16.93,112.11,16.791,112.066,16.691,112.066z M11.951,106.629c-1.119,0-2.144-0.656-2.612-1.67
			c-0.651-1.444-0.015-3.148,1.417-3.807c1.407-0.646,3.175,0.031,3.804,1.432c0.646,1.424,0.015,3.123-1.414,3.781
			C12.749,106.544,12.351,106.629,11.951,106.629z M11.944,103.389c-0.334,0.119-0.417,0.346-0.332,0.536
			c0.095,0.212,0.3,0.254,0.504,0.166c0.166-0.076,0.249-0.3,0.166-0.48C12.209,103.444,12.054,103.389,11.944,103.389z
			 M8.489,97.36c-1.261,0-2.392-0.846-2.753-2.056c-0.215-0.746-0.129-1.521,0.241-2.194c0.371-0.67,0.98-1.158,1.717-1.37
			c1.429-0.42,3.119,0.468,3.553,1.95c0.441,1.518-0.432,3.112-1.946,3.558C9.022,97.324,8.757,97.36,8.489,97.36z M8.499,94.122
			c-0.234,0.052-0.3,0.132-0.334,0.195c-0.029,0.049-0.07,0.153-0.031,0.283c0.068,0.236,0.319,0.295,0.485,0.246
			c0.176-0.051,0.291-0.259,0.232-0.456C8.796,94.205,8.63,94.122,8.499,94.122z M6.396,87.702c-1.424,0-2.643-1.061-2.841-2.465
			c-0.214-1.568,0.88-3.019,2.443-3.238c0.056-0.008,0.346-0.029,0.402-0.029c1.426,0,2.646,1.061,2.833,2.465
			c0.109,0.746-0.083,1.505-0.544,2.122c-0.461,0.614-1.134,1.009-1.895,1.114C6.74,87.678,6.453,87.702,6.396,87.702z
			 M6.401,84.467c-0.261,0.034-0.4,0.219-0.373,0.429c0.024,0.171,0.185,0.31,0.368,0.31v1.249l0.015-1.249
			c0.166-0.024,0.241-0.093,0.28-0.146c0.034-0.046,0.09-0.141,0.071-0.275C6.733,84.579,6.558,84.467,6.401,84.467z"/>
	</g>
	<g>
		<path fill="#FFFFFF" d="M5.699,76.593c-0.419,0-0.844-0.178-1.136-0.476c-0.308-0.302-0.483-0.727-0.483-1.148
			c0-0.427,0.175-0.844,0.483-1.146c0.6-0.6,1.677-0.6,2.282,0c0.307,0.302,0.473,0.719,0.473,1.146
			c0,0.422-0.166,0.847-0.473,1.142C6.548,76.415,6.128,76.593,5.699,76.593"/>
		<path fill="#FFFFFF" d="M5.699,77.842c-0.758,0-1.497-0.31-2.026-0.849c-0.529-0.522-0.841-1.264-0.841-2.024
			c0-0.758,0.312-1.499,0.856-2.036c1.024-1.023,2.994-1.028,4.038,0.005c0.534,0.524,0.841,1.266,0.841,2.031
			c0,0.775-0.312,1.52-0.855,2.041C7.206,77.529,6.462,77.842,5.699,77.842z M5.702,74.623c-0.105,0-0.205,0.031-0.256,0.083
			c-0.075,0.075-0.117,0.17-0.117,0.263c0,0.091,0.044,0.193,0.109,0.259c0.154,0.153,0.39,0.137,0.515,0.01
			c0.081-0.078,0.117-0.176,0.117-0.269c0-0.1-0.037-0.192-0.1-0.256C5.911,74.654,5.811,74.623,5.702,74.623z"/>
	</g>
	<g>
		<path fill="#FFFFFF" d="M144.301,76.593c-0.424,0-0.844-0.178-1.145-0.482c-0.303-0.295-0.475-0.72-0.475-1.142
			c0-0.427,0.172-0.844,0.475-1.146c0.604-0.6,1.682-0.6,2.287,0c0.301,0.302,0.477,0.719,0.477,1.146
			c0,0.43-0.176,0.847-0.467,1.142C145.145,76.415,144.721,76.593,144.301,76.593"/>
		<path fill="#FFFFFF" d="M144.301,77.842c-0.752,0-1.494-0.31-2.031-0.852c-0.525-0.515-0.836-1.256-0.836-2.021
			c0-0.756,0.305-1.494,0.84-2.028c1.047-1.039,3.006-1.034,4.049-0.005c0.539,0.541,0.846,1.28,0.846,2.033
			c0,0.751-0.301,1.487-0.828,2.021C145.791,77.534,145.051,77.842,144.301,77.842z M144.299,74.623
			c-0.107,0-0.209,0.031-0.264,0.085c-0.064,0.066-0.104,0.163-0.104,0.261c0,0.091,0.039,0.193,0.096,0.249
			c0.166,0.166,0.402,0.148,0.545,0.007c0.059-0.058,0.1-0.16,0.1-0.256c0-0.093-0.043-0.194-0.111-0.263
			C144.508,74.654,144.406,74.623,144.299,74.623z"/>
	</g>
	<g>
		<path fill="#FFFFFF" d="M75.002,7.285c-0.428,0-0.844-0.176-1.15-0.466c-0.297-0.31-0.469-0.724-0.469-1.146
			c0-0.434,0.172-0.849,0.469-1.153c0.605-0.598,1.693-0.598,2.297,0c0.297,0.305,0.473,0.719,0.473,1.153
			c0,0.422-0.176,0.836-0.473,1.146C75.842,7.109,75.432,7.285,75.002,7.285"/>
		<path fill="#FFFFFF" d="M75.002,8.534c-0.732,0-1.465-0.295-2.008-0.807c-0.563-0.583-0.859-1.314-0.859-2.053
			c0-0.763,0.293-1.482,0.824-2.026c1.068-1.058,3.029-1.043,4.068-0.015c0.541,0.554,0.844,1.292,0.844,2.041
			c0,0.734-0.301,1.468-0.822,2.012C76.455,8.248,75.744,8.534,75.002,8.534z M75,5.32c-0.109,0-0.217,0.034-0.27,0.088
			c-0.057,0.058-0.098,0.161-0.098,0.266c0,0.098,0.043,0.202,0.119,0.28c0.082,0.073,0.373,0.115,0.539-0.042
			c0.033-0.039,0.082-0.146,0.082-0.239c0-0.103-0.043-0.205-0.117-0.28C75.217,5.354,75.109,5.32,75,5.32z"/>
	</g>
	<g>
		<path fill="#FFFFFF" d="M75.002,145.895c-0.428,0-0.844-0.176-1.15-0.485c-0.297-0.298-0.469-0.72-0.469-1.144
			c0-0.417,0.172-0.842,0.469-1.139c0.605-0.605,1.693-0.605,2.297,0c0.297,0.297,0.473,0.722,0.473,1.139
			c0,0.424-0.176,0.846-0.473,1.144C75.842,145.719,75.432,145.895,75.002,145.895"/>
		<path fill="#FFFFFF" d="M75.002,147.143c-0.756,0-1.498-0.313-2.035-0.854c-0.527-0.526-0.832-1.266-0.832-2.023
			c0-0.756,0.305-1.492,0.834-2.021c1.039-1.044,3.023-1.044,4.063,0c0.533,0.534,0.84,1.271,0.84,2.021
			c0,0.756-0.307,1.492-0.84,2.026C76.488,146.84,75.766,147.143,75.002,147.143z M75,143.922c-0.107,0-0.213,0.034-0.266,0.087
			c-0.061,0.062-0.102,0.166-0.102,0.257c0,0.095,0.041,0.199,0.102,0.261c0.148,0.153,0.375,0.156,0.529,0.002
			c0.066-0.065,0.109-0.17,0.109-0.263c0-0.086-0.047-0.193-0.107-0.257C75.213,143.956,75.107,143.922,75,143.922z"/>
	</g>
</g>
</svg>
