<?xml version="1.0" encoding="utf-8"?>
<!-- Generator: Adobe Illustrator 16.0.0, SVG Export Plug-In . SVG Version: 6.00 Build 0)  -->
<!DOCTYPE svg PUBLIC "-//W3C//DTD SVG 1.1//EN" "http://www.w3.org/Graphics/SVG/1.1/DTD/svg11.dtd">
<svg version="1.1" id="Capa_1" xmlns="http://www.w3.org/2000/svg" xmlns:xlink="http://www.w3.org/1999/xlink" x="0px" y="0px"
	 width="445px" height="340px" viewBox="0 0 445 340" enable-background="new 0 0 445 340" xml:space="preserve">
<g>
	<g>
		
			<image overflow="visible" opacity="0.45" width="447" height="331" xlink:href="43182AF8.png"  transform="matrix(1 0 0 1 -0.5 5)">
		</image>
		<g>
			<g>
				<g>
					<polygon fill="#1C6B05" stroke="#FFFFFF" stroke-width="24" stroke-linejoin="round" stroke-miterlimit="10" points="
						327.359,294.451 419.25,294.451 405.766,263.103 419.25,231.754 327.359,231.754 					"/>
					<polygon fill="#1C6B05" stroke="#FFFFFF" stroke-width="24" stroke-linejoin="round" stroke-miterlimit="10" points="
						118.595,294.451 26.704,294.451 40.188,263.103 26.704,231.754 118.595,231.754 					"/>
					<polygon fill="#0F4702" stroke="#FFFFFF" stroke-width="24" stroke-linejoin="round" stroke-miterlimit="10" points="
						327.359,294.748 375.552,254.697 375.552,192 327.359,232.051 					"/>
					<polygon fill="#0F4702" stroke="#FFFFFF" stroke-width="24" stroke-linejoin="round" stroke-miterlimit="10" points="
						118.704,294.748 70.51,254.697 70.51,192 118.704,232.051 					"/>
					<path fill="#20D124" stroke="#FFFFFF" stroke-width="24" stroke-linejoin="round" stroke-miterlimit="10" d="M341.623,297
						c0,6.627-5.373,12-12,12h-212c-6.627,0-12-5.373-12-12V108c0-6.627,5.373-12,12-12h212c6.627,0,12,5.373,12,12V297z"/>
					<g>
						<rect x="70.51" y="192" fill="#147001" width="305.042" height="62.697"/>
						
							<rect x="70.51" y="192" fill="none" stroke="#FFFFFF" stroke-width="24" stroke-linejoin="round" stroke-miterlimit="10" width="305.042" height="62.697"/>
					</g>
					<g>
						
							<circle fill="#FFFFFF" stroke="#FFFFFF" stroke-width="24" stroke-linejoin="round" stroke-miterlimit="10" cx="223.123" cy="107.5" r="70.5"/>
						<path fill="#20D124" stroke="#FFFFFF" stroke-width="24" stroke-linejoin="round" stroke-miterlimit="10" d="M223.123,183
							c-41.631,0-75.5-33.869-75.5-75.5s33.869-75.5,75.5-75.5s75.5,33.869,75.5,75.5S264.754,183,223.123,183z M223.123,42
							c-36.117,0-65.5,29.383-65.5,65.5s29.383,65.5,65.5,65.5s65.5-29.383,65.5-65.5S259.24,42,223.123,42z"/>
					</g>
				</g>
			</g>
		</g>
	</g>
	<g>
		<g>
			<polygon fill="#1C6B05" points="327.359,294.451 419.25,294.451 405.766,263.103 419.25,231.754 327.359,231.754 			"/>
			<polygon fill="#1C6B05" points="118.595,294.451 26.704,294.451 40.188,263.103 26.704,231.754 118.595,231.754 			"/>
			<polygon fill="#0F4702" points="327.359,294.748 375.552,254.697 375.552,192 327.359,232.051 			"/>
			<polygon fill="#0F4702" points="118.704,294.748 70.51,254.697 70.51,192 118.704,232.051 			"/>
			<path fill="#20D124" d="M341.623,297c0,6.627-5.373,12-12,12h-212c-6.627,0-12-5.373-12-12V108c0-6.627,5.373-12,12-12h212
				c6.627,0,12,5.373,12,12V297z"/>
			<g>
				
					<image overflow="visible" opacity="0.35" width="336" height="93" xlink:href="43182AF9.png"  transform="matrix(1 0 0 1 55.5 180)">
				</image>
				<g>
					<rect x="70.51" y="192" fill="#147001" width="305.042" height="62.697"/>
				</g>
			</g>
			<circle fill="#FFFFFF" stroke="#20D124" stroke-width="10" stroke-miterlimit="10" cx="223.123" cy="107.5" r="70.5"/>
			<text transform="matrix(1 0 0 1 176.7461 142.2241)" fill="#20D124" font-family="'FontAwesome'" font-size="93.4555"></text>
		</g>
	</g>
</g>
</svg>
