<?xml version="1.0" encoding="utf-8"?>
<!-- Generator: Adobe Illustrator 18.0.0, SVG Export Plug-In . SVG Version: 6.00 Build 0)  -->
<!DOCTYPE svg PUBLIC "-//W3C//DTD SVG 1.1//EN" "http://www.w3.org/Graphics/SVG/1.1/DTD/svg11.dtd">
<svg version="1.1" id="Capa_1" xmlns="http://www.w3.org/2000/svg" xmlns:xlink="http://www.w3.org/1999/xlink" x="0px" y="0px"
	 viewBox="0 0 691.4 683" enable-background="new 0 0 691.4 683" xml:space="preserve">
<g>
	
		<rect x="122.3" y="116.4" transform="matrix(0.3825 -0.924 0.924 0.3825 -100.4844 529.1912)" opacity="0.3" fill="#B26509" enable-background="new    " width="446.8" height="446.8"/>
	
		<rect x="122.3" y="116.4" transform="matrix(-0.3829 -0.9238 0.9238 -0.3829 164.1815 789.2054)" opacity="0.3" fill="#B26509" enable-background="new    " width="446.7" height="446.7"/>
	
		<rect x="122.3" y="116.4" transform="matrix(-0.7071 -0.7071 0.7071 -0.7071 349.8661 824.4197)" opacity="0.3" fill="#B26509" enable-background="new    " width="446.7" height="446.7"/>
	<rect x="122.3" y="116.9" opacity="0.3" fill="#B26509" enable-background="new    " width="446.7" height="446.7"/>
	<circle opacity="0.5" fill="#B26509" enable-background="new    " cx="521.8" cy="82.8" r="10.9"/>
	<circle opacity="0.5" fill="#B26509" enable-background="new    " cx="600.8" cy="166.6" r="10.9"/>
	<circle opacity="0.5" fill="#B26509" enable-background="new    " cx="645.1" cy="281.6" r="10.9"/>
	<circle opacity="0.5" fill="#B26509" enable-background="new    " cx="645.1" cy="405" r="10.9"/>
	<circle opacity="0.5" fill="#B26509" enable-background="new    " cx="600.8" cy="516.4" r="10.9"/>
	<circle opacity="0.5" fill="#B26509" enable-background="new    " cx="521.8" cy="600.2" r="10.9"/>
	<circle opacity="0.5" fill="#B26509" enable-background="new    " cx="166" cy="82.8" r="10.9"/>
	<circle opacity="0.5" fill="#B26509" enable-background="new    " cx="87" cy="166.6" r="10.9"/>
	<circle opacity="0.5" fill="#B26509" enable-background="new    " cx="42.7" cy="281.6" r="10.9"/>
	<circle opacity="0.5" fill="#B26509" enable-background="new    " cx="42.7" cy="405" r="10.9"/>
	<circle opacity="0.5" fill="#B26509" enable-background="new    " cx="87" cy="516.4" r="10.9"/>
	<circle opacity="0.5" fill="#B26509" enable-background="new    " cx="174.4" cy="600.2" r="10.9"/>
	<circle opacity="0.5" fill="#B26509" enable-background="new    " cx="288.2" cy="649.3" r="10.9"/>
	<circle opacity="0.5" fill="#B26509" enable-background="new    " cx="415.2" cy="649.3" r="10.9"/>
	<circle opacity="0.5" fill="#B26509" enable-background="new    " cx="288.2" cy="33.7" r="10.9"/>
	<circle opacity="0.5" fill="#B26509" enable-background="new    " cx="415.2" cy="33.7" r="10.9"/>
</g>
</svg>
